<?xml version="1.0" encoding="iso-8859-1"?>
<!-- Generator: Adobe Illustrator 21.0.0, SVG Export Plug-In . SVG Version: 6.00 Build 0)  -->
<svg xmlns="http://www.w3.org/2000/svg" xmlns:xlink="http://www.w3.org/1999/xlink" version="1.1" id="Capa_1" x="0px" y="0px" viewBox="0 0 512 512" style="enable-background:new 0 0 512 512;" xml:space="preserve" width="512" height="512">
<g>
	<path d="M0,381.989v37c0,8.284,6.716,15,15,15h482c8.284,0,15-6.716,15-15v-37H0z"/>
	<path d="M0,250.965c0,33.997,0,70.189,0,101.025h131.016C122.924,289.876,66.69,242.845,0,250.965z"/>
	<path d="M449.149,232.877c-18.269-2.921-36.045-7.055-53.149-12.277v131.389h116c0-23.017,0-42.807,0-45.1   C512,270.132,485.391,238.677,449.149,232.877z"/>
	<path d="M353.339,204.718l-23.488,34.531c-4.952,7.28-15.181,8.829-22.099,3.011c-5.932-4.988-6.836-13.812-2.477-20.221   l20.947-30.796c-8.704-4.807-17.081-9.932-25.09-15.356l-29.617,29.619c-2.929,2.929-6.768,4.394-10.607,4.394   c-13.248,0-20.145-16.068-10.334-25.88l26.354-26.356c-6.617-5.546-12.882-11.325-18.781-17.311   c-38.054,24.607-37.446,25.163-43.325,25.163c-14.865,0-20.783-19.436-7.821-27.817l31.248-20.206   c-7.607-9.965-14.258-20.367-19.813-31.153c-4.22-8.194-13.746-10.378-20.805-6.397c-63.484,35.795-117.868,40.044-182.172,38.053   C7.346,117.749,0,124.107,0,133.201l0,87.572c83.36-8.233,153.089,52.666,161.21,131.216H366v-141.93   C361.724,208.349,357.503,206.567,353.339,204.718z"/>
</g>















</svg>
