<?xml version="1.0" encoding="utf-8"?>
<!-- Generator: Adobe Illustrator 25.0.0, SVG Export Plug-In . SVG Version: 6.00 Build 0)  -->
<svg version="1.1" id="Capa_1" xmlns="http://www.w3.org/2000/svg" xmlns:xlink="http://www.w3.org/1999/xlink" x="0px" y="0px"
	 viewBox="0 0 512 512" style="enable-background:new 0 0 512 512;" xml:space="preserve">
<style type="text/css">
	.st0{fill:#FFFFFF;}
</style>
<g>
	<path class="st0" d="M0,382v37c0,8.3,6.7,15,15,15h482c8.3,0,15-6.7,15-15v-37H0z"/>
	<path class="st0" d="M0,251c0,34,0,70.2,0,101h131C122.9,289.9,66.7,242.8,0,251z"/>
	<path class="st0" d="M449.1,232.9c-18.3-2.9-36-7.1-53.1-12.3V352h116c0-23,0-42.8,0-45.1C512,270.1,485.4,238.7,449.1,232.9z"/>
	<path class="st0" d="M353.3,204.7l-23.5,34.5c-5,7.3-15.2,8.8-22.1,3c-5.9-5-6.8-13.8-2.5-20.2l20.9-30.8
		c-8.7-4.8-17.1-9.9-25.1-15.4l-29.6,29.6c-2.9,2.9-6.8,4.4-10.6,4.4c-13.2,0-20.1-16.1-10.3-25.9l26.4-26.4
		c-6.6-5.5-12.9-11.3-18.8-17.3c-38.1,24.6-37.4,25.2-43.3,25.2c-14.9,0-20.8-19.4-7.8-27.8l31.2-20.2c-7.6-10-14.3-20.4-19.8-31.2
		c-4.2-8.2-13.7-10.4-20.8-6.4C134.1,115.7,79.8,120,15.5,118C7.3,117.7,0,124.1,0,133.2v87.6c83.4-8.2,153.1,52.7,161.2,131.2H366
		V210.1C361.7,208.3,357.5,206.6,353.3,204.7z"/>
</g>
</svg>
